# xmcd CD database file
#
# Track frame offsets:
#	150
#	12492
#	23545
#	38305
#	53347
#	63780
#	75712
#	87950
#	100467
#	111330
#	130250
#	140615
#	156577
#	167125
#	179352
#	192705
#	207670
#
# Disc length: 2922 seconds
#
# Revision: 5
# Processed by: cddbd v1.5.2PL0 Copyright (c) Steve Scherf et al.
# Submitted via: CDex 1.78
#
DISCID=e80b6811
DTITLE=Aretha Franklin - 30 greatest hits [CD1)
DYEAR=1985
DGENRE=Soul
TTITLE0=I never loved a man (the way I love you)
TTITLE1=Respect
TTITLE2=Do right woman, do right man
TTITLE3=Dr. Feelgood
TTITLE4=Save me
TTITLE5=Baby I love you
TTITLE6=(you make me feel like) A natural woman
TTITLE7=Chain of fools
TTITLE8=Since you've been gone
TTITLE9=Ain't no way
TTITLE10=Think
TTITLE11=I say a little prayer
TTITLE12=The house that Jack built
TTITLE13=See saw
TTITLE14=The weight
TTITLE15=Share your love with me
TTITLE16=Eleanor Rigby
EXTD=This is a R and B, or Soul, R and B or Soul is not listed in the freedb genre list. Velton Tapier YEAR: 1985
EXTT0=
EXTT1=
EXTT2=
EXTT3=
EXTT4=
EXTT5=
EXTT6=
EXTT7=
EXTT8=
EXTT9=
EXTT10=
EXTT11=
EXTT12=
EXTT13=
EXTT14=
EXTT15=
EXTT16=
PLAYORDER=
